<!-- icon666.com - MILLIONS OF FREE VECTOR ICONS --><svg id="Layer_2" viewBox="0 0 100 100" xmlns="http://www.w3.org/2000/svg"><path d="m85.355 78.35-10.359-10.349v-19.997c0-12.098-8.588-22.177-19.997-24.496v-3.86c0-2.759-2.239-4.999-4.999-4.999s-4.999 2.24-4.999 4.999v3.86c-11.409 2.319-19.997 12.398-19.997 24.496v19.997l-10.359 10.349h26.587c.911 4.007 4.488 6.999 8.769 6.999s7.857-2.992 8.769-6.999zm-65.878-2 6.94-6.934.587-.586v-.829-19.997c0-10.892 7.736-20.369 18.396-22.536l1.602-.325v-1.635-3.86c0-1.653 1.346-2.999 2.999-2.999s2.999 1.346 2.999 2.999v3.86 1.635l1.602.325c10.659 2.167 18.396 11.645 18.396 22.536v19.997.829l.587.586 6.94 6.934h-21.526-17.998zm30.523 6.999c-3.165 0-5.846-2.111-6.708-4.999h13.416c-.862 2.887-3.543 4.999-6.708 4.999z"></path></svg>