<svg width="18" height="22" viewBox="0 0 18 22" fill="none" xmlns="http://www.w3.org/2000/svg">
<path fill-rule="evenodd" clip-rule="evenodd" d="M1.99969 7C1.99969 5.14348 2.73718 3.36301 4.04994 2.05025C5.36269 0.737498 7.14317 0 8.99969 0C10.8562 0 12.6367 0.737498 13.9494 2.05025C15.2622 3.36301 15.9997 5.14348 15.9997 7V10.764L17.8217 14.408C17.9056 14.5757 17.9452 14.7621 17.9367 14.9494C17.9283 15.1368 17.8721 15.3188 17.7735 15.4783C17.6749 15.6379 17.5372 15.7695 17.3734 15.8608C17.2096 15.9521 17.0252 16 16.8377 16H12.8737C12.6512 16.8582 12.1501 17.6183 11.4489 18.1609C10.7478 18.7035 9.88628 18.9979 8.99969 18.9979C8.11309 18.9979 7.25159 18.7035 6.55042 18.1609C5.84926 17.6183 5.34812 16.8582 5.12569 16H1.16169C0.974164 16 0.789748 15.9521 0.625953 15.8608C0.462159 15.7695 0.324424 15.6379 0.225831 15.4783C0.127239 15.3188 0.0710612 15.1368 0.0626347 14.9494C0.0542083 14.7621 0.0938127 14.5757 0.177686 14.408L1.99969 10.764V7ZM7.26769 16C7.44323 16.304 7.6957 16.5565 7.99973 16.732C8.30376 16.9075 8.64863 16.9999 8.99969 16.9999C9.35074 16.9999 9.69561 16.9075 9.99964 16.732C10.3037 16.5565 10.5561 16.304 10.7317 16H7.26769ZM8.99969 2C7.6736 2 6.40183 2.52678 5.46415 3.46447C4.52647 4.40215 3.99969 5.67392 3.99969 7V10.764C3.99967 11.0743 3.92743 11.3804 3.78869 11.658L2.61869 14H15.3817L14.2117 11.658C14.0726 11.3805 14 11.0744 13.9997 10.764V7C13.9997 5.67392 13.4729 4.40215 12.5352 3.46447C11.5975 2.52678 10.3258 2 8.99969 2Z" fill="#13476D"/>
</svg>
